<?xml version="1.0" encoding="UTF-8"?>
<svg version="1.1" xmlns="http://www.w3.org/2000/svg" width="512" height="512">
<path d="M0 0 C0.86109375 0.65226562 1.7221875 1.30453125 2.609375 1.9765625 C25.40155045 19.61509318 42.91029655 41.38429293 56 67 C56.33225586 67.64533691 56.66451172 68.29067383 57.00683594 68.95556641 C78.74280232 111.70445014 81.81652586 163.32822943 68 209 C58.27185677 238.76747047 41.9556169 268.660281 18.12109375 289.51953125 C17.42113281 290.33808594 16.72117187 291.15664063 16 292 C16.35005812 295.53774987 17.49220821 298.33096077 19.1171875 301.46386719 C19.55434082 302.31535339 19.99149414 303.1668396 20.44189453 304.04412842 C20.91481934 304.95253479 21.38774414 305.86094116 21.875 306.796875 C22.87025112 308.74455696 23.86502794 310.69248134 24.859375 312.640625 C26.42716495 315.69575511 27.99921546 318.74848716 29.58007812 321.796875 C31.1077139 324.74890208 32.61737795 327.70958819 34.125 330.671875 C34.5979248 331.57218445 35.07084961 332.4724939 35.55810547 333.40008545 C38.23100119 338.68343871 40.55459895 343.94815709 40 350 C38.33557184 353.12291686 36.20619455 355.39690273 33 357 C27.10294635 357.29345212 22.01684807 356.55653482 16.30834961 355.14819336 C15.47961838 354.95151566 14.65088715 354.75483795 13.79704285 354.55220032 C12.01085055 354.12721088 10.22561355 353.69818983 8.44126701 353.26551628 C5.6137578 352.58049553 2.78363862 351.90742044 -0.04747009 351.23744202 C-8.09168624 349.33132386 -16.13034167 347.40215656 -24.16821289 345.46948242 C-29.09625677 344.2854141 -34.02708677 343.11357725 -38.95971489 341.94876289 C-41.74225798 341.28753781 -44.52105829 340.61193135 -47.30006409 339.9360199 C-49.01243813 339.53069748 -50.72498917 339.12612183 -52.43774414 338.72241211 C-53.58738647 338.43649704 -53.58738647 338.43649704 -54.76025391 338.14480591 C-59.48803019 337.05137507 -63.16512418 337.01494652 -68 338 C-68.84602783 338.15339844 -69.69205566 338.30679687 -70.5637207 338.46484375 C-71.34320068 338.62082031 -72.12268066 338.77679688 -72.92578125 338.9375 C-73.80556641 339.11023438 -74.68535156 339.28296875 -75.59179688 339.4609375 C-77.39432426 339.8180786 -79.196416 340.17742605 -80.99804688 340.5390625 C-127.90427369 349.70818634 -178.35505601 339.015101 -218.25 313.0625 C-229.24012432 305.4655015 -239.33954256 297.21081697 -249 288 C-249.77988281 287.27296875 -250.55976563 286.5459375 -251.36328125 285.796875 C-279.06545737 259.22640412 -296.11333416 222.31320764 -303 185 C-303.13132324 184.30229492 -303.26264648 183.60458984 -303.39794922 182.88574219 C-310.77698978 141.42650448 -301.80924874 97.70256077 -282 61 C-281.67386719 60.38785645 -281.34773438 59.77571289 -281.01171875 59.14501953 C-265.20470952 29.66431755 -241.00832726 6.7274627 -213 -11 C-211.95070313 -11.67675781 -210.90140625 -12.35351562 -209.8203125 -13.05078125 C-146.50009186 -51.67766401 -58.04924441 -45.47708185 0 0 Z M-232 30 C-232.81984375 30.74765625 -233.6396875 31.4953125 -234.484375 32.265625 C-241.0654474 38.56665177 -246.59396912 45.69166741 -252 53 C-252.4242627 53.56928223 -252.84852539 54.13856445 -253.28564453 54.72509766 C-278.62814138 89.21822643 -289.20843875 135.33399484 -282.8125 177.5625 C-280.15841611 193.4258048 -275.68305259 208.38016948 -269 223 C-268.69723145 223.6712793 -268.39446289 224.34255859 -268.08251953 225.03417969 C-260.56573086 241.50028425 -250.18979754 255.68707903 -238 269 C-237.14019531 269.94359375 -236.28039062 270.8871875 -235.39453125 271.859375 C-208.06358391 300.47210656 -166.63354959 320.53798991 -126.88623047 322.12426758 C-107.82463003 322.55046839 -89.18964355 322.12749688 -70.80078125 316.55078125 C-61.49756295 314.72127807 -52.77886996 317.15140696 -43.75390625 319.28125 C-42.29203582 319.61847182 -40.82994974 319.95475999 -39.36766052 320.29016113 C-35.54427031 321.16943158 -31.72360495 322.05999431 -27.90350342 322.95343018 C-22.49871848 324.21532169 -17.09038753 325.46194203 -11.68235779 326.70983887 C-8.80674566 327.37339044 -5.93223369 328.04143084 -3.05848694 328.7130127 C-1.75327154 329.01638392 -0.4480503 329.31973004 0.85717773 329.62304688 C1.99807358 329.88952026 3.13896942 330.15599365 4.31443787 330.43054199 C6.86853756 331.06914405 6.86853756 331.06914405 9 331 C7.6164985 326.45205169 5.74963041 322.35025539 3.5234375 318.16796875 C2.84551228 316.86176472 2.16845565 315.55510959 1.4921875 314.24804688 C0.43620695 312.2162403 -0.62481706 310.18784352 -1.70117188 308.16674805 C-9.28748969 293.87976283 -9.28748969 293.87976283 -8 286 C-5.47535438 281.85976862 -1.96476291 278.93763218 1.6875 275.8125 C33.22981109 248.69928003 51.10855673 206.56774702 54.7890625 165.79638672 C57.98621558 123.41190599 45.28557059 79.15470581 17.67675781 46.43164062 C15.57854458 44.04119283 13.42051792 41.71197623 11.2421875 39.39453125 C9.371071 37.39628314 7.61006894 35.36490836 5.875 33.25 C-17.60737458 5.73464142 -57.73999968 -11.52749259 -93 -16 C-93.79148437 -16.11085938 -94.58296875 -16.22171875 -95.3984375 -16.3359375 C-145.99789102 -22.24186741 -194.861695 -3.93421595 -232 30 Z " fill="#000000" transform="translate(372,98)"/>
</svg>
